<?xml version="1.0" standalone="no"?>
<!DOCTYPE svg PUBLIC "-//W3C//DTD SVG 20010904//EN"
 "http://www.w3.org/TR/2001/REC-SVG-20010904/DTD/svg10.dtd">
<svg version="1.0" xmlns="http://www.w3.org/2000/svg"
 width="628.000000pt" height="628.000000pt" viewBox="0 0 628.000000 628.000000"
 preserveAspectRatio="xMidYMid meet">
<metadata>
Created by potrace 1.14, written by Peter Selinger 2001-2017
</metadata>
<g transform="translate(0.000000,628.000000) scale(0.100000,-0.100000)"
fill="#000000" stroke="none">
<path d="M2920 5864 c-1134 -103 -2068 -860 -2395 -1940 -351 -1158 115 -2421
1139 -3081 664 -428 1505 -546 2262 -318 1155 349 1944 1410 1944 2615 0 1185
-768 2239 -1893 2599 -141 45 -302 82 -457 106 -101 16 -498 28 -600 19z m791
-978 c115 -29 236 -83 438 -194 177 -98 281 -144 390 -172 134 -36 239 -37
325 -4 61 23 -47 -96 -112 -124 -116 -50 -218 -39 -433 48 -80 32 -182 68
-225 79 -304 77 -579 40 -828 -112 -223 -136 -374 -307 -556 -632 -40 -71 -80
-138 -88 -147 -36 -42 -102 -7 -122 63 -21 74 -3 215 45 348 13 36 22 68 19
71 -3 3 -36 -26 -73 -65 -104 -110 -195 -280 -271 -508 -17 -54 -34 -96 -37
-94 -2 3 -9 35 -14 73 -12 85 2 225 35 354 13 52 22 97 20 99 -8 9 -67 -57
-115 -127 l-49 -74 0 49 c0 136 79 302 212 448 124 136 432 352 673 470 320
158 555 205 766 151z m369 -543 c143 -41 264 -108 408 -227 225 -184 309 -420
257 -719 -35 -198 -95 -352 -265 -682 -175 -339 -221 -470 -241 -690 -11 -113
-14 -122 -43 -153 -41 -44 -155 -121 -241 -165 -76 -38 -236 -97 -264 -97 -17
0 -172 98 -226 143 l-30 25 23 39 c50 81 122 241 142 313 20 72 39 230 27 230
-3 0 -27 -37 -53 -82 -123 -216 -272 -406 -453 -581 -118 -114 -296 -253 -370
-289 -40 -19 -50 -20 -108 -11 -154 27 -396 186 -439 288 -12 31 -12 39 0 70
17 40 36 49 119 59 64 7 63 8 20 -50 -13 -17 -23 -38 -23 -46 0 -48 221 -169
320 -176 53 -4 57 -2 120 46 36 27 112 98 170 158 268 276 426 558 490 874 11
54 20 100 20 103 0 3 46 24 101 47 101 43 101 43 78 61 -37 27 -90 39 -182 39
-103 0 -187 -24 -307 -86 -90 -47 -250 -159 -250 -175 0 -8 82 -5 153 6 15 3
27 2 27 -1 0 -16 -110 -162 -176 -232 -236 -255 -561 -385 -855 -343 -128 19
-246 63 -444 166 -185 96 -250 120 -345 129 -55 6 -121 -9 -126 -29 -2 -5 45
-41 103 -78 123 -79 123 -87 -4 -87 -110 0 -179 26 -251 94 -192 181 -70 337
237 304 236 -25 481 -113 671 -243 89 -61 95 -60 94 20 -1 70 -59 152 -154
218 l-25 17 76 69 c41 38 104 106 140 151 l64 82 5 -120 c3 -66 8 -123 11
-127 4 -3 27 20 52 52 48 62 191 203 206 203 6 0 13 -4 16 -10 3 -5 37 -19 76
-31 51 -16 82 -19 116 -14 l46 7 -7 -29 c-12 -51 -18 -208 -9 -231 9 -23 11
-22 52 32 64 83 209 217 298 276 210 138 455 216 659 208 89 -3 108 -7 160
-33 70 -36 110 -88 124 -162 11 -61 -2 -121 -55 -253 l-34 -84 32 -28 c18 -15
50 -36 72 -46 135 -65 245 -12 359 171 71 114 97 193 103 307 10 190 -51 322
-250 538 -86 93 -96 118 -45 108 124 -25 322 -227 393 -401 27 -69 41 -81 79
-71 44 11 74 53 101 139 136 429 1 751 -395 942 -142 67 -198 80 -360 79 -138
0 -149 -2 -229 -32 -217 -82 -423 -273 -595 -552 -61 -98 -161 -295 -225 -442
-67 -152 -135 -207 -269 -216 -56 -4 -82 -1 -112 13 -52 23 -51 35 4 35 69 0
143 29 195 76 40 36 56 63 96 156 259 607 537 924 909 1035 128 38 295 37 436
-4z m13 -331 c103 -35 208 -103 278 -180 56 -61 114 -171 124 -237 l7 -40 -42
48 c-116 132 -305 228 -495 252 -114 14 -267 -49 -346 -144 l-35 -43 -28 42
c-15 23 -47 55 -71 72 -43 30 -43 31 -28 55 24 36 145 128 208 158 134 63 278
69 428 17z m-755 -411 c87 -44 157 -148 169 -249 9 -82 1 -98 -57 -109 l-50
-10 0 37 c0 34 -17 100 -26 100 -2 0 -25 -14 -51 -30 l-47 -30 -29 46 -28 46
26 28 c34 35 22 43 -55 34 -33 -4 -60 -3 -60 2 0 14 143 154 158 154 7 0 29
-9 50 -19z m440 -236 c140 -33 255 -122 282 -219 16 -58 8 -151 -16 -197 l-18
-34 -8 53 c-21 138 -128 246 -284 287 -31 8 -59 16 -61 18 -2 3 -6 27 -10 56
l-6 51 29 0 c16 0 57 -7 92 -15z m-754 -184 c8 -15 22 -33 30 -40 9 -8 16 -19
16 -26 0 -16 -78 -51 -88 -39 -4 5 -20 23 -36 41 l-28 32 38 68 38 68 8 -38
c4 -21 14 -50 22 -66z m51 -922 c-53 -125 -117 -221 -215 -320 -93 -94 -186
-158 -253 -175 l-28 -7 45 91 c27 54 55 96 68 103 88 45 279 218 362 327 22
28 41 50 43 48 3 -2 -8 -32 -22 -67z"/>
</g>
</svg>
