<svg width="175" height="54" viewBox="0 0 175 54" fill="none" xmlns="http://www.w3.org/2000/svg">
<path d="M0.832 53V3.608H25.456C28.96 3.608 31.864 4.256 34.168 5.552C36.472 6.848 38.2 8.648 39.352 10.952C40.552 13.208 41.152 15.896 41.152 19.016C41.152 22.136 40.528 24.896 39.28 27.296C38.032 29.648 36.208 31.472 33.808 32.768C31.456 34.064 28.576 34.712 25.168 34.712H8.896V53H0.832ZM8.896 27.8H24.808C27.352 27.8 29.344 27.032 30.784 25.496C32.272 23.96 33.016 21.824 33.016 19.088C33.016 17.264 32.704 15.728 32.08 14.48C31.456 13.184 30.544 12.2 29.344 11.528C28.144 10.856 26.632 10.52 24.808 10.52H8.896V27.8ZM47.8474 8.576V0.943996H55.3354V8.576H47.8474ZM47.8474 53V15.128H55.3354V53H47.8474ZM61.0437 53L74.5797 33.56L61.8357 15.128H70.9077L79.2597 27.8H79.6917L88.1157 15.128H96.6837L83.8677 33.344L97.4037 53H88.4037L79.1877 39.104H78.8277L69.6117 53H61.0437ZM117.554 53.864C113.618 53.864 110.282 53.168 107.546 51.776C104.858 50.336 102.818 48.152 101.426 45.224C100.082 42.296 99.4096 38.576 99.4096 34.064C99.4096 29.504 100.082 25.784 101.426 22.904C102.818 19.976 104.858 17.816 107.546 16.424C110.282 14.984 113.618 14.264 117.554 14.264C121.586 14.264 124.946 14.984 127.634 16.424C130.322 17.816 132.338 19.976 133.682 22.904C135.074 25.784 135.77 29.504 135.77 34.064C135.77 38.576 135.074 42.296 133.682 45.224C132.338 48.152 130.322 50.336 127.634 51.776C124.946 53.168 121.586 53.864 117.554 53.864ZM117.554 47.672C119.954 47.672 121.922 47.216 123.458 46.304C124.994 45.344 126.122 43.904 126.842 41.984C127.61 40.064 127.994 37.64 127.994 34.712V33.416C127.994 30.488 127.61 28.064 126.842 26.144C126.122 24.224 124.994 22.808 123.458 21.896C121.922 20.936 119.954 20.456 117.554 20.456C115.202 20.456 113.258 20.936 111.722 21.896C110.186 22.808 109.034 24.224 108.266 26.144C107.546 28.064 107.186 30.488 107.186 33.416V34.712C107.186 37.64 107.546 40.064 108.266 41.984C109.034 43.904 110.186 45.344 111.722 46.304C113.258 47.216 115.202 47.672 117.554 47.672ZM155.282 53.864C151.634 53.864 148.682 52.904 146.426 50.984C144.17 49.016 143.042 45.68 143.042 40.976V15.128H150.53V39.824C150.53 41.264 150.698 42.464 151.034 43.424C151.418 44.384 151.946 45.152 152.618 45.728C153.29 46.304 154.082 46.712 154.994 46.952C155.906 47.192 156.914 47.312 158.018 47.312C159.746 47.312 161.306 46.904 162.698 46.088C164.138 45.224 165.29 44.048 166.154 42.56C167.018 41.024 167.45 39.272 167.45 37.304V15.128H174.938V53H168.818L168.17 47.6H167.666C166.754 48.992 165.674 50.144 164.426 51.056C163.178 51.968 161.786 52.664 160.25 53.144C158.762 53.624 157.106 53.864 155.282 53.864Z" fill="inherit"/>
</svg>
