<svg width="314" height="313" viewBox="0 0 314 313" fill="none" xmlns="http://www.w3.org/2000/svg">
<circle cx="157" cy="156.5" r="146.5" fill="#222831" stroke="#FFD369" stroke-width="20"/>
<path d="M224.177 107.483C202.104 89.1015 181.213 92.4972 165.268 104.973C149.249 117.449 139.209 142.031 135.666 150.447C135.666 150.447 132.934 160.338 119.278 159.748L119.425 159.822C119.425 159.822 122.157 162.405 126.807 162.258C126.807 162.258 136.404 162.553 140.243 153.104C158.845 107.409 185.273 87.6989 216.352 106.376C243.075 122.542 231.78 149.044 230.23 153.842C228.606 158.567 223.512 159.157 223.07 156.574C222.627 153.916 217.754 144.836 211.627 139.595C204.098 133.246 195.83 130.958 204.983 139.964C221.15 155.762 220.929 170.895 209.487 185.88C199.373 199.021 188.891 186.471 188.891 186.471C188.891 186.471 189.998 184.478 191.179 181.673C187.562 175.25 182.32 172.888 182.32 172.888C182.32 172.888 178.113 174.734 171.912 177.243C171.1 183.371 168.516 196.437 160.174 209.282C148.732 226.777 136.625 235.709 134.337 236.743C130.646 238.293 113.446 229.878 116.029 226.925L119.278 222.422C116.62 223.086 113.962 223.381 111.379 223.529L109.976 225.891C106.433 232.092 130.646 247.742 137.88 243.165C168.516 223.677 181.287 194.665 181.287 194.665L181.213 200.792C184.092 201.383 203.95 204.631 219.305 187.062C226.687 171.928 235.619 158.05 237.686 140.924C239.458 126.455 234.586 116.194 224.177 107.483Z" fill="#FFD369"/>
<path d="M103.849 184.183C97.0575 183.297 91.2256 185.142 89.0848 186.028C102.742 194.739 97.2051 201.678 97.2051 201.678C97.2051 201.678 82.7362 188.612 58.0063 186.471C45.4568 185.364 36.9674 192.598 49.074 202.933C54.3153 207.362 61.1068 207.215 66.4219 206.034C60.1471 201.826 55.2011 198.651 55.2011 198.651C55.2011 198.651 56.6037 194.813 67.7506 197.913C75.7233 200.202 85.7629 208.839 99.4197 211.349C105.325 210.684 114.036 208.248 121.271 200.866C128.653 193.115 117.58 186.028 103.849 184.183Z" fill="#FFD369"/>
<path d="M191.105 181.747L193.394 174.881C194.796 169.049 192.065 155.245 166.449 161.593C140.833 168.016 129.17 187.505 129.17 187.505C129.17 187.505 133.377 188.612 143.122 183.518C143.122 183.518 155.45 172.297 167.556 170.23C178.113 168.459 182.173 172.888 182.173 172.888C182.173 172.888 187.488 175.324 191.105 181.747Z" fill="#FFD369"/>
<path d="M128.727 177.539C129.096 174.66 129.76 172.593 129.76 172.593C129.76 172.593 124.814 175.619 116.62 170.526C116.62 170.526 112.043 174.512 108.278 178.498C112.486 179.606 121.788 181.23 128.727 177.539Z" fill="#FFD369"/>
<path d="M129.17 187.505C128.136 184.183 128.284 180.492 128.727 177.539C121.788 181.23 112.486 179.532 108.278 178.498L103.923 184.183C117.654 186.028 128.727 193.115 121.345 200.792C114.11 208.174 105.399 210.611 99.4937 211.275C104.809 212.308 110.641 212.382 117.137 210.832C136.552 206.181 147.846 191.417 153.088 182.632C147.33 183.444 143.269 183.371 143.269 183.371C133.377 188.612 129.17 187.505 129.17 187.505Z" fill="#FFD369"/>
<path d="M103.849 184.183C103.849 184.183 102.668 177.76 103.332 170.526C98.6077 177.686 92.8497 182.928 89.011 185.954L89.0848 186.028C91.2256 185.142 97.0575 183.297 103.849 184.183Z" fill="#FFD369"/>
<path d="M203.507 217.033C200.997 214.006 200.923 210.611 200.923 210.611L203.507 207.584L206.755 210.02C206.238 215.04 203.507 217.033 203.507 217.033ZM188.005 221.979C184.535 217.919 184.461 213.268 184.461 213.268L188.005 209.06L192.434 212.382C191.696 219.174 188.005 221.979 188.005 221.979ZM181.139 200.866C180.253 209.06 176.489 217.181 171.69 224.563C174.643 227.146 179.515 230.985 184.535 233.2C184.535 233.2 200.702 229.509 211.553 218.436C211.037 208.617 214.063 197.987 217.902 189.867L219.157 187.209C203.876 204.705 184.092 201.457 181.139 200.866Z" fill="#FFD369"/>
<path d="M200.923 210.611C200.923 210.611 200.997 214.08 203.507 217.033C203.507 217.033 206.238 215.04 206.755 209.946L203.507 207.51L200.923 210.611Z" fill="#FFD369"/>
<path d="M120.294 93.9659C140.004 78.2421 162.372 67.3905 178.908 67.9811C191.531 68.424 207.403 79.2018 215.597 83.262C224.898 87.765 237.965 91.3822 244.461 86.8792C244.461 86.8792 241.287 97.7308 225.563 94.7779C221.945 94.1136 218.107 92.4895 214.12 90.5702C192.27 81.4902 166.949 82.5975 145.836 108.582C139.561 116.26 134.985 125.93 131.072 132.5C128.857 133.312 126.126 133.312 124.945 128.736C122.804 120.911 128.857 107.327 128.857 107.327C115.939 115.669 109.443 141.949 109.443 141.949C105.53 131.762 111.805 114.267 111.805 114.267C107.597 117.515 104.718 121.796 102.725 126.226L102.799 124.159C102.946 117.219 105.456 105.851 120.294 93.9659ZM175.217 150.66L169.902 151.768C170.419 149.036 169.828 146.452 168.499 144.238L168.425 144.976L163.922 147.855L161.043 143.278L163.922 140.399L162.372 139.882L155.95 140.621C158.976 136.93 161.855 134.198 164.218 132.279C172.043 134.641 176.841 142.614 175.217 150.66ZM200.168 120.837C188.209 118.917 181.492 126.742 179.277 129.99C176.915 125.414 172.855 123.125 171.969 122.608C175.365 118.548 184.666 109.321 198.47 111.24C213.087 113.233 224.603 124.971 225.194 136.044C225.194 136.044 217.664 123.642 200.168 120.837ZM195.296 154.647C190.129 150.513 183.411 149.774 183.411 149.774L183.116 144.385C183.116 144.385 194.853 144.312 200.98 152.063C206.96 159.814 201.128 168.008 201.128 168.008C201.128 168.008 201.792 159.888 195.296 154.647ZM145.91 155.975C147.239 153.318 148.715 150.882 150.118 148.593C149.675 152.21 151.225 155.606 153.957 157.747L149.675 160.183L145.91 155.975ZM128.931 225.736C128.931 225.736 131.146 221.528 133.287 216.73C142.883 211.193 150.339 203.147 155.654 195.691C154.03 200.563 146.648 219.978 128.931 225.736ZM237.743 140.768C235.602 157.969 226.744 171.847 219.362 186.906L218.107 189.564C214.268 197.684 211.315 208.314 211.758 218.133C200.833 229.28 184.74 232.897 184.74 232.897C179.646 230.756 174.848 226.843 171.895 224.26C176.693 216.951 180.458 208.757 181.344 200.563L181.418 194.436C181.418 194.436 168.647 223.448 138.011 242.936C130.777 247.513 106.49 231.863 110.107 225.662L111.51 223.3C114.093 223.152 116.751 222.857 119.408 222.193L116.16 226.696C113.577 229.575 130.777 238.064 134.468 236.514C136.756 235.48 148.863 226.474 160.305 209.053C168.647 196.282 171.231 183.142 172.043 177.014C178.17 174.504 182.451 172.659 182.451 172.659C182.451 172.659 178.391 168.23 167.835 170.001C155.728 172.068 143.4 183.289 143.4 183.289C143.4 183.289 147.46 183.363 153.218 182.551C147.977 191.336 136.683 206.026 117.268 210.751C110.771 212.301 104.94 212.153 99.6245 211.193C85.9676 208.684 75.928 200.047 67.9554 197.758C56.8084 194.731 55.4059 198.496 55.4059 198.496C55.4059 198.496 60.3518 201.671 66.6266 205.878C61.3115 207.059 54.52 207.207 49.2787 202.778C37.2459 192.443 45.6615 185.208 58.211 186.316C82.8672 188.457 97.4099 201.523 97.4099 201.523C97.4099 201.523 102.946 194.51 89.2896 185.873L89.2158 185.799C93.1283 182.772 98.8863 177.605 103.537 170.37C102.873 177.531 104.054 184.027 104.054 184.027L108.409 178.343C112.174 174.357 116.751 170.37 116.751 170.37C124.945 175.464 129.891 172.437 129.891 172.437C129.891 172.437 129.227 174.504 128.857 177.383C128.415 180.336 128.267 184.027 129.3 187.349C129.3 187.349 140.964 167.86 166.58 161.438C192.196 155.016 194.927 168.894 193.524 174.726L191.236 181.591C190.055 184.396 188.948 186.39 188.948 186.39C188.948 186.39 199.504 198.939 209.544 185.799C220.986 170.813 221.281 155.68 205.041 139.882C195.887 130.876 204.228 133.165 211.684 139.513C217.885 144.755 222.684 153.835 223.127 156.492C223.57 159.15 228.589 158.485 230.287 153.761C231.837 148.962 243.132 122.387 216.409 106.294C185.33 87.5435 158.829 107.327 140.3 153.023C136.461 162.472 126.864 162.176 126.864 162.176C122.214 162.324 119.482 159.74 119.482 159.74L119.335 159.666C132.991 160.257 135.723 150.365 135.723 150.365C139.266 141.949 149.306 117.367 165.325 104.891C181.27 92.4157 202.162 89.0938 224.234 107.401C234.643 115.965 239.515 126.226 237.743 140.768Z" fill="#FFD369"/>
<path d="M155.597 195.92C150.208 203.376 142.826 211.422 133.23 216.959C131.089 221.757 128.874 225.965 128.874 225.965C146.591 220.207 153.973 200.792 155.597 195.92Z" fill="#FFD369"/>
<path d="M164.087 132.434C161.798 134.354 158.845 137.085 155.819 140.776L162.241 140.038L163.791 140.555H165.489L168.442 144.393C169.771 146.534 170.361 149.192 169.845 151.923L175.16 150.816C176.784 142.843 171.986 134.87 164.087 132.434Z" fill="#FFD369"/>
<path d="M153.899 157.976C151.168 155.836 149.618 152.44 150.061 148.823C148.658 151.037 147.182 153.473 145.853 156.205L149.692 160.412L153.899 157.976Z" fill="#FFD369"/>
<path d="M165.489 140.702H163.792L160.913 143.507L163.792 148.084L168.295 145.205L168.368 144.467L165.489 140.702Z" fill="#FFD369"/>
<path d="M225.137 136.273C224.546 125.2 212.956 113.536 198.413 111.469C184.609 109.55 175.308 118.778 171.912 122.838C172.798 123.281 176.784 125.643 179.22 130.22C181.435 126.972 188.226 119.073 200.111 121.066C217.607 123.871 225.137 136.273 225.137 136.273Z" fill="#FFD369"/>
<path d="M200.923 152.366C194.796 144.615 183.059 144.689 183.059 144.689L183.354 150.077C183.354 150.077 190.072 150.816 195.239 154.95C201.735 160.191 201.071 168.385 201.071 168.385C201.071 168.385 206.903 160.117 200.923 152.366Z" fill="#FFD369"/>
<path d="M102.668 126.381C104.587 122.026 107.466 117.744 111.748 114.422C111.748 114.422 105.547 131.991 109.386 142.105C109.386 142.105 115.882 115.825 128.8 107.483C128.8 107.483 122.747 121.066 124.888 128.891C126.143 133.468 128.8 133.468 131.015 132.656C134.928 126.086 139.578 116.415 145.779 108.738C166.892 82.7529 192.212 81.7194 214.063 90.7255C218.05 92.6449 221.888 94.1951 225.506 94.9333C241.229 97.8862 244.404 87.0345 244.404 87.0345C237.834 91.5376 224.841 87.9203 215.54 83.4173C207.346 79.3571 191.474 68.5793 178.851 68.1364C162.315 67.5458 139.947 78.3975 120.237 94.1213C105.399 106.006 102.889 117.375 102.742 124.314L102.668 126.381Z" fill="#FFD369"/>
<path d="M184.535 213.194C184.535 213.194 184.609 217.845 188.079 221.905C188.079 221.905 191.77 219.174 192.508 212.308L188.079 208.987L184.535 213.194Z" fill="#FFD369"/>
</svg>
