<svg width="1112" height="313" viewBox="0 0 1112 313" fill="none" xmlns="http://www.w3.org/2000/svg">
<path d="M395.328 253V55.432H493.824C507.84 55.432 519.456 58.024 528.672 63.208C537.888 68.392 544.8 75.592 549.408 84.808C554.208 93.832 556.608 104.584 556.608 117.064C556.608 129.544 554.112 140.584 549.12 150.184C544.128 159.592 536.832 166.888 527.232 172.072C517.824 177.256 506.304 179.848 492.672 179.848H427.584V253H395.328ZM427.584 152.2H491.232C501.408 152.2 509.376 149.128 515.136 142.984C521.088 136.84 524.064 128.296 524.064 117.352C524.064 110.056 522.816 103.912 520.32 98.92C517.824 93.736 514.176 89.8 509.376 87.112C504.576 84.424 498.528 83.08 491.232 83.08H427.584V152.2ZM583.39 75.304V44.776H613.342V75.304H583.39ZM583.39 253V101.512H613.342V253H583.39ZM636.175 253L690.319 175.24L639.343 101.512H675.631L709.039 152.2H710.767L744.463 101.512H778.735L727.471 174.376L781.615 253H745.615L708.751 197.416H707.311L670.447 253H636.175ZM862.214 256.456C846.47 256.456 833.126 253.672 822.182 248.104C811.43 242.344 803.27 233.608 797.702 221.896C792.326 210.184 789.638 195.304 789.638 177.256C789.638 159.016 792.326 144.136 797.702 132.616C803.27 120.904 811.43 112.264 822.182 106.696C833.126 100.936 846.47 98.056 862.214 98.056C878.342 98.056 891.782 100.936 902.534 106.696C913.286 112.264 921.35 120.904 926.726 132.616C932.294 144.136 935.078 159.016 935.078 177.256C935.078 195.304 932.294 210.184 926.726 221.896C921.35 233.608 913.286 242.344 902.534 248.104C891.782 253.672 878.342 256.456 862.214 256.456ZM862.214 231.688C871.814 231.688 879.686 229.864 885.83 226.216C891.974 222.376 896.486 216.616 899.366 208.936C902.438 201.256 903.974 191.56 903.974 179.848V174.664C903.974 162.952 902.438 153.256 899.366 145.576C896.486 137.896 891.974 132.232 885.83 128.584C879.686 124.744 871.814 122.824 862.214 122.824C852.806 122.824 845.03 124.744 838.886 128.584C832.742 132.232 828.134 137.896 825.062 145.576C822.182 153.256 820.742 162.952 820.742 174.664V179.848C820.742 191.56 822.182 201.256 825.062 208.936C828.134 216.616 832.742 222.376 838.886 226.216C845.03 229.864 852.806 231.688 862.214 231.688ZM1013.13 256.456C998.537 256.456 986.729 252.616 977.705 244.936C968.681 237.064 964.169 223.72 964.169 204.904V101.512H994.121V200.296C994.121 206.056 994.793 210.856 996.137 214.696C997.673 218.536 999.785 221.608 1002.47 223.912C1005.16 226.216 1008.33 227.848 1011.98 228.808C1015.62 229.768 1019.66 230.248 1024.07 230.248C1030.98 230.248 1037.22 228.616 1042.79 225.352C1048.55 221.896 1053.16 217.192 1056.62 211.24C1060.07 205.096 1061.8 198.088 1061.8 190.216V101.512H1091.75V253H1067.27L1064.68 231.4H1062.66C1059.02 236.968 1054.7 241.576 1049.7 245.224C1044.71 248.872 1039.14 251.656 1033 253.576C1027.05 255.496 1020.42 256.456 1013.13 256.456Z" fill="#FFD369"/>
<circle cx="156.5" cy="156.5" r="146.5" fill="#222831" stroke="#FFD369" stroke-width="20"/>
<path d="M223.677 107.483C201.604 89.1015 180.713 92.4972 164.768 104.973C148.749 117.449 138.709 142.031 135.166 150.447C135.166 150.447 132.434 160.338 118.778 159.748L118.925 159.822C118.925 159.822 121.657 162.405 126.307 162.258C126.307 162.258 135.904 162.553 139.743 153.104C158.345 107.409 184.773 87.6989 215.852 106.376C242.575 122.542 231.28 149.044 229.73 153.842C228.106 158.567 223.012 159.157 222.57 156.574C222.127 153.916 217.254 144.836 211.127 139.595C203.598 133.246 195.33 130.958 204.483 139.964C220.65 155.762 220.429 170.895 208.987 185.88C198.873 199.021 188.391 186.471 188.391 186.471C188.391 186.471 189.498 184.478 190.679 181.673C187.062 175.25 181.82 172.888 181.82 172.888C181.82 172.888 177.613 174.734 171.412 177.243C170.6 183.371 168.016 196.437 159.674 209.282C148.232 226.777 136.125 235.709 133.837 236.743C130.146 238.293 112.946 229.878 115.529 226.925L118.778 222.422C116.12 223.086 113.462 223.381 110.879 223.529L109.476 225.891C105.933 232.092 130.146 247.742 137.38 243.165C168.016 223.677 180.787 194.665 180.787 194.665L180.713 200.792C183.592 201.383 203.45 204.631 218.805 187.062C226.187 171.928 235.119 158.05 237.186 140.924C238.958 126.455 234.086 116.194 223.677 107.483Z" fill="#FFD369"/>
<path d="M103.349 184.183C96.5575 183.297 90.7256 185.142 88.5848 186.028C102.242 194.739 96.7051 201.678 96.7051 201.678C96.7051 201.678 82.2362 188.612 57.5063 186.471C44.9568 185.364 36.4674 192.598 48.574 202.933C53.8153 207.362 60.6068 207.215 65.9219 206.034C59.6471 201.826 54.7011 198.651 54.7011 198.651C54.7011 198.651 56.1037 194.813 67.2506 197.913C75.2233 200.202 85.2629 208.839 98.9197 211.349C104.825 210.684 113.536 208.248 120.771 200.866C128.153 193.115 117.08 186.028 103.349 184.183Z" fill="#FFD369"/>
<path d="M190.605 181.747L192.894 174.881C194.296 169.049 191.565 155.245 165.949 161.593C140.333 168.016 128.67 187.505 128.67 187.505C128.67 187.505 132.877 188.612 142.622 183.518C142.622 183.518 154.95 172.297 167.056 170.23C177.613 168.459 181.673 172.888 181.673 172.888C181.673 172.888 186.988 175.324 190.605 181.747Z" fill="#FFD369"/>
<path d="M128.227 177.539C128.596 174.66 129.26 172.593 129.26 172.593C129.26 172.593 124.314 175.619 116.12 170.526C116.12 170.526 111.543 174.512 107.778 178.498C111.986 179.606 121.288 181.23 128.227 177.539Z" fill="#FFD369"/>
<path d="M128.67 187.505C127.636 184.183 127.784 180.492 128.227 177.539C121.288 181.23 111.986 179.532 107.778 178.498L103.423 184.183C117.154 186.028 128.227 193.115 120.845 200.792C113.61 208.174 104.899 210.611 98.9937 211.275C104.309 212.308 110.141 212.382 116.637 210.832C136.052 206.181 147.346 191.417 152.588 182.632C146.83 183.444 142.769 183.371 142.769 183.371C132.877 188.612 128.67 187.505 128.67 187.505Z" fill="#FFD369"/>
<path d="M103.349 184.183C103.349 184.183 102.168 177.76 102.832 170.526C98.1077 177.686 92.3497 182.928 88.511 185.954L88.5848 186.028C90.7256 185.142 96.5575 183.297 103.349 184.183Z" fill="#FFD369"/>
<path d="M203.007 217.033C200.497 214.006 200.423 210.611 200.423 210.611L203.007 207.584L206.255 210.02C205.738 215.04 203.007 217.033 203.007 217.033ZM187.505 221.979C184.035 217.919 183.961 213.268 183.961 213.268L187.505 209.06L191.934 212.382C191.196 219.174 187.505 221.979 187.505 221.979ZM180.639 200.866C179.753 209.06 175.989 217.181 171.19 224.563C174.143 227.146 179.015 230.985 184.035 233.2C184.035 233.2 200.202 229.509 211.053 218.436C210.537 208.617 213.563 197.987 217.402 189.867L218.657 187.209C203.376 204.705 183.592 201.457 180.639 200.866Z" fill="#FFD369"/>
<path d="M200.423 210.611C200.423 210.611 200.497 214.08 203.007 217.033C203.007 217.033 205.738 215.04 206.255 209.946L203.007 207.51L200.423 210.611Z" fill="#FFD369"/>
<path d="M119.794 93.9659C139.504 78.2421 161.872 67.3905 178.408 67.9811C191.031 68.424 206.903 79.2018 215.097 83.262C224.398 87.765 237.465 91.3822 243.961 86.8792C243.961 86.8792 240.787 97.7308 225.063 94.7779C221.445 94.1136 217.607 92.4895 213.62 90.5702C191.77 81.4902 166.449 82.5975 145.336 108.582C139.061 116.26 134.485 125.93 130.572 132.5C128.357 133.312 125.626 133.312 124.445 128.736C122.304 120.911 128.357 107.327 128.357 107.327C115.439 115.669 108.943 141.949 108.943 141.949C105.03 131.762 111.305 114.267 111.305 114.267C107.097 117.515 104.218 121.796 102.225 126.226L102.299 124.159C102.446 117.219 104.956 105.851 119.794 93.9659ZM174.717 150.66L169.402 151.768C169.919 149.036 169.328 146.452 167.999 144.238L167.925 144.976L163.422 147.855L160.543 143.278L163.422 140.399L161.872 139.882L155.45 140.621C158.476 136.93 161.355 134.198 163.718 132.279C171.543 134.641 176.341 142.614 174.717 150.66ZM199.668 120.837C187.709 118.917 180.992 126.742 178.777 129.99C176.415 125.414 172.355 123.125 171.469 122.608C174.865 118.548 184.166 109.321 197.97 111.24C212.587 113.233 224.103 124.971 224.694 136.044C224.694 136.044 217.164 123.642 199.668 120.837ZM194.796 154.647C189.629 150.513 182.911 149.774 182.911 149.774L182.616 144.385C182.616 144.385 194.353 144.312 200.48 152.063C206.46 159.814 200.628 168.008 200.628 168.008C200.628 168.008 201.292 159.888 194.796 154.647ZM145.41 155.975C146.739 153.318 148.215 150.882 149.618 148.593C149.175 152.21 150.725 155.606 153.457 157.747L149.175 160.183L145.41 155.975ZM128.431 225.736C128.431 225.736 130.646 221.528 132.787 216.73C142.383 211.193 149.839 203.147 155.154 195.691C153.53 200.563 146.148 219.978 128.431 225.736ZM237.243 140.768C235.102 157.969 226.244 171.847 218.862 186.906L217.607 189.564C213.768 197.684 210.815 208.314 211.258 218.133C200.333 229.28 184.24 232.897 184.24 232.897C179.146 230.756 174.348 226.843 171.395 224.26C176.193 216.951 179.958 208.757 180.844 200.563L180.918 194.436C180.918 194.436 168.147 223.448 137.511 242.936C130.277 247.513 105.99 231.863 109.607 225.662L111.01 223.3C113.593 223.152 116.251 222.857 118.908 222.193L115.66 226.696C113.077 229.575 130.277 238.064 133.968 236.514C136.256 235.48 148.363 226.474 159.805 209.053C168.147 196.282 170.731 183.142 171.543 177.014C177.67 174.504 181.951 172.659 181.951 172.659C181.951 172.659 177.891 168.23 167.335 170.001C155.228 172.068 142.9 183.289 142.9 183.289C142.9 183.289 146.96 183.363 152.718 182.551C147.477 191.336 136.183 206.026 116.768 210.751C110.271 212.301 104.44 212.153 99.1245 211.193C85.4676 208.684 75.428 200.047 67.4554 197.758C56.3084 194.731 54.9059 198.496 54.9059 198.496C54.9059 198.496 59.8518 201.671 66.1266 205.878C60.8115 207.059 54.02 207.207 48.7787 202.778C36.7459 192.443 45.1615 185.208 57.711 186.316C82.3672 188.457 96.9099 201.523 96.9099 201.523C96.9099 201.523 102.446 194.51 88.7896 185.873L88.7158 185.799C92.6283 182.772 98.3863 177.605 103.037 170.37C102.373 177.531 103.554 184.027 103.554 184.027L107.909 178.343C111.674 174.357 116.251 170.37 116.251 170.37C124.445 175.464 129.391 172.437 129.391 172.437C129.391 172.437 128.727 174.504 128.357 177.383C127.915 180.336 127.767 184.027 128.8 187.349C128.8 187.349 140.464 167.86 166.08 161.438C191.696 155.016 194.427 168.894 193.024 174.726L190.736 181.591C189.555 184.396 188.448 186.39 188.448 186.39C188.448 186.39 199.004 198.939 209.044 185.799C220.486 170.813 220.781 155.68 204.541 139.882C195.387 130.876 203.728 133.165 211.184 139.513C217.385 144.755 222.184 153.835 222.627 156.492C223.07 159.15 228.089 158.485 229.787 153.761C231.337 148.962 242.632 122.387 215.909 106.294C184.83 87.5435 158.329 107.327 139.8 153.023C135.961 162.472 126.364 162.176 126.364 162.176C121.714 162.324 118.982 159.74 118.982 159.74L118.835 159.666C132.491 160.257 135.223 150.365 135.223 150.365C138.766 141.949 148.806 117.367 164.825 104.891C180.77 92.4157 201.662 89.0938 223.734 107.401C234.143 115.965 239.015 126.226 237.243 140.768Z" fill="#FFD369"/>
<path d="M155.097 195.92C149.708 203.376 142.326 211.422 132.73 216.959C130.589 221.757 128.374 225.965 128.374 225.965C146.091 220.207 153.473 200.792 155.097 195.92Z" fill="#FFD369"/>
<path d="M163.587 132.434C161.298 134.354 158.345 137.085 155.319 140.776L161.741 140.038L163.291 140.555H164.989L167.942 144.393C169.271 146.534 169.861 149.192 169.345 151.923L174.66 150.816C176.284 142.843 171.486 134.87 163.587 132.434Z" fill="#FFD369"/>
<path d="M153.399 157.976C150.668 155.836 149.118 152.44 149.561 148.823C148.158 151.037 146.682 153.473 145.353 156.205L149.192 160.412L153.399 157.976Z" fill="#FFD369"/>
<path d="M164.989 140.702H163.292L160.413 143.507L163.292 148.084L167.795 145.205L167.868 144.467L164.989 140.702Z" fill="#FFD369"/>
<path d="M224.637 136.273C224.046 125.2 212.456 113.536 197.913 111.469C184.109 109.55 174.808 118.778 171.412 122.838C172.298 123.281 176.284 125.643 178.72 130.22C180.935 126.972 187.726 119.073 199.611 121.066C217.107 123.871 224.637 136.273 224.637 136.273Z" fill="#FFD369"/>
<path d="M200.423 152.366C194.296 144.615 182.559 144.689 182.559 144.689L182.854 150.077C182.854 150.077 189.572 150.816 194.739 154.95C201.235 160.191 200.571 168.385 200.571 168.385C200.571 168.385 206.403 160.117 200.423 152.366Z" fill="#FFD369"/>
<path d="M102.168 126.381C104.087 122.026 106.966 117.744 111.248 114.422C111.248 114.422 105.047 131.991 108.886 142.105C108.886 142.105 115.382 115.825 128.3 107.483C128.3 107.483 122.247 121.066 124.388 128.891C125.643 133.468 128.3 133.468 130.515 132.656C134.428 126.086 139.078 116.415 145.279 108.738C166.392 82.7529 191.712 81.7194 213.563 90.7255C217.55 92.6449 221.388 94.1951 225.006 94.9333C240.729 97.8862 243.904 87.0345 243.904 87.0345C237.334 91.5376 224.341 87.9203 215.04 83.4173C206.846 79.3571 190.974 68.5793 178.351 68.1364C161.815 67.5458 139.447 78.3975 119.737 94.1213C104.899 106.006 102.389 117.375 102.242 124.314L102.168 126.381Z" fill="#FFD369"/>
<path d="M184.035 213.194C184.035 213.194 184.109 217.845 187.579 221.905C187.579 221.905 191.27 219.174 192.008 212.308L187.579 208.987L184.035 213.194Z" fill="#FFD369"/>
</svg>
