<svg width="697" height="213" viewBox="0 0 697 213" fill="none" xmlns="http://www.w3.org/2000/svg">
<path d="M0.328 209V11.432H98.824C112.84 11.432 124.456 14.024 133.672 19.208C142.888 24.392 149.8 31.592 154.408 40.808C159.208 49.832 161.608 60.584 161.608 73.064C161.608 85.544 159.112 96.584 154.12 106.184C149.128 115.592 141.832 122.888 132.232 128.072C122.824 133.256 111.304 135.848 97.672 135.848H32.584V209H0.328ZM32.584 108.2H96.232C106.408 108.2 114.376 105.128 120.136 98.984C126.088 92.84 129.064 84.296 129.064 73.352C129.064 66.056 127.816 59.912 125.32 54.92C122.824 49.736 119.176 45.8 114.376 43.112C109.576 40.424 103.528 39.08 96.232 39.08H32.584V108.2ZM188.39 31.304V0.775986H218.342V31.304H188.39ZM188.39 209V57.512H218.342V209H188.39ZM241.175 209L295.319 131.24L244.343 57.512H280.631L314.039 108.2H315.767L349.463 57.512H383.735L332.471 130.376L386.615 209H350.615L313.751 153.416H312.311L275.447 209H241.175ZM467.214 212.456C451.47 212.456 438.126 209.672 427.182 204.104C416.43 198.344 408.27 189.608 402.702 177.896C397.326 166.184 394.638 151.304 394.638 133.256C394.638 115.016 397.326 100.136 402.702 88.616C408.27 76.904 416.43 68.264 427.182 62.696C438.126 56.936 451.47 54.056 467.214 54.056C483.342 54.056 496.782 56.936 507.534 62.696C518.286 68.264 526.35 76.904 531.726 88.616C537.294 100.136 540.078 115.016 540.078 133.256C540.078 151.304 537.294 166.184 531.726 177.896C526.35 189.608 518.286 198.344 507.534 204.104C496.782 209.672 483.342 212.456 467.214 212.456ZM467.214 187.688C476.814 187.688 484.686 185.864 490.83 182.216C496.974 178.376 501.486 172.616 504.366 164.936C507.438 157.256 508.974 147.56 508.974 135.848V130.664C508.974 118.952 507.438 109.256 504.366 101.576C501.486 93.896 496.974 88.232 490.83 84.584C484.686 80.744 476.814 78.824 467.214 78.824C457.806 78.824 450.03 80.744 443.886 84.584C437.742 88.232 433.134 93.896 430.062 101.576C427.182 109.256 425.742 118.952 425.742 130.664V135.848C425.742 147.56 427.182 157.256 430.062 164.936C433.134 172.616 437.742 178.376 443.886 182.216C450.03 185.864 457.806 187.688 467.214 187.688ZM618.129 212.456C603.537 212.456 591.729 208.616 582.705 200.936C573.681 193.064 569.169 179.72 569.169 160.904V57.512H599.121V156.296C599.121 162.056 599.793 166.856 601.137 170.696C602.673 174.536 604.785 177.608 607.473 179.912C610.161 182.216 613.329 183.848 616.977 184.808C620.625 185.768 624.657 186.248 629.073 186.248C635.985 186.248 642.225 184.616 647.793 181.352C653.553 177.896 658.161 173.192 661.617 167.24C665.073 161.096 666.801 154.088 666.801 146.216V57.512H696.752V209H672.273L669.681 187.4H667.665C664.017 192.968 659.697 197.576 654.705 201.224C649.713 204.872 644.145 207.656 638.001 209.576C632.049 211.496 625.425 212.456 618.129 212.456Z" fill="#FFD369"/>
</svg>
