<svg width="814" height="814" viewBox="0 0 814 814" fill="none" xmlns="http://www.w3.org/2000/svg">
<rect width="814" height="814" rx="40" fill="#303841"/>
<path d="M60.328 660V462.432H158.824C172.84 462.432 184.456 465.024 193.672 470.208C202.888 475.392 209.8 482.592 214.408 491.808C219.208 500.832 221.608 511.584 221.608 524.064C221.608 536.544 219.112 547.584 214.12 557.184C209.128 566.592 201.832 573.888 192.232 579.072C182.824 584.256 171.304 586.848 157.672 586.848H92.584V660H60.328ZM92.584 559.2H156.232C166.408 559.2 174.376 556.128 180.136 549.984C186.088 543.84 189.064 535.296 189.064 524.352C189.064 517.056 187.816 510.912 185.32 505.92C182.824 500.736 179.176 496.8 174.376 494.112C169.576 491.424 163.528 490.08 156.232 490.08H92.584V559.2ZM248.39 482.304V451.776H278.342V482.304H248.39ZM248.39 660V508.512H278.342V660H248.39ZM301.175 660L355.319 582.24L304.343 508.512H340.631L374.039 559.2H375.767L409.463 508.512H443.735L392.471 581.376L446.615 660H410.615L373.751 604.416H372.311L335.447 660H301.175ZM527.214 663.456C511.47 663.456 498.126 660.672 487.182 655.104C476.43 649.344 468.27 640.608 462.702 628.896C457.326 617.184 454.638 602.304 454.638 584.256C454.638 566.016 457.326 551.136 462.702 539.616C468.27 527.904 476.43 519.264 487.182 513.696C498.126 507.936 511.47 505.056 527.214 505.056C543.342 505.056 556.782 507.936 567.534 513.696C578.286 519.264 586.35 527.904 591.726 539.616C597.294 551.136 600.078 566.016 600.078 584.256C600.078 602.304 597.294 617.184 591.726 628.896C586.35 640.608 578.286 649.344 567.534 655.104C556.782 660.672 543.342 663.456 527.214 663.456ZM527.214 638.688C536.814 638.688 544.686 636.864 550.83 633.216C556.974 629.376 561.486 623.616 564.366 615.936C567.438 608.256 568.974 598.56 568.974 586.848V581.664C568.974 569.952 567.438 560.256 564.366 552.576C561.486 544.896 556.974 539.232 550.83 535.584C544.686 531.744 536.814 529.824 527.214 529.824C517.806 529.824 510.03 531.744 503.886 535.584C497.742 539.232 493.134 544.896 490.062 552.576C487.182 560.256 485.742 569.952 485.742 581.664V586.848C485.742 598.56 487.182 608.256 490.062 615.936C493.134 623.616 497.742 629.376 503.886 633.216C510.03 636.864 517.806 638.688 527.214 638.688ZM678.129 663.456C663.537 663.456 651.729 659.616 642.705 651.936C633.681 644.064 629.169 630.72 629.169 611.904V508.512H659.121V607.296C659.121 613.056 659.793 617.856 661.137 621.696C662.673 625.536 664.785 628.608 667.473 630.912C670.161 633.216 673.329 634.848 676.977 635.808C680.625 636.768 684.657 637.248 689.073 637.248C695.985 637.248 702.225 635.616 707.793 632.352C713.553 628.896 718.161 624.192 721.617 618.24C725.073 612.096 726.801 605.088 726.801 597.216V508.512H756.752V660H732.273L729.681 638.4H727.665C724.017 643.968 719.697 648.576 714.705 652.224C709.713 655.872 704.145 658.656 698.001 660.576C692.049 662.496 685.425 663.456 678.129 663.456Z" fill="#FFD369"/>
<circle cx="407.5" cy="250.5" r="146.5" fill="#222831" stroke="#FFD369" stroke-width="20"/>
<path d="M474.677 201.483C452.604 183.101 431.713 186.497 415.768 198.973C399.749 211.449 389.709 236.031 386.166 244.447C386.166 244.447 383.434 254.338 369.778 253.748L369.925 253.822C369.925 253.822 372.657 256.405 377.307 256.258C377.307 256.258 386.904 256.553 390.743 247.104C409.345 201.409 435.773 181.699 466.852 200.376C493.575 216.542 482.28 243.044 480.73 247.842C479.106 252.567 474.012 253.157 473.57 250.574C473.127 247.916 468.254 238.836 462.127 233.595C454.598 227.246 446.33 224.958 455.483 233.964C471.65 249.762 471.429 264.895 459.987 279.88C449.873 293.021 439.391 280.471 439.391 280.471C439.391 280.471 440.498 278.478 441.679 275.673C438.062 269.25 432.82 266.888 432.82 266.888C432.82 266.888 428.613 268.734 422.412 271.243C421.6 277.371 419.016 290.437 410.674 303.282C399.232 320.777 387.125 329.709 384.837 330.743C381.146 332.293 363.946 323.878 366.529 320.925L369.778 316.422C367.12 317.086 364.462 317.381 361.879 317.529L360.476 319.891C356.933 326.092 381.146 341.742 388.38 337.165C419.016 317.677 431.787 288.665 431.787 288.665L431.713 294.792C434.592 295.383 454.45 298.631 469.805 281.062C477.187 265.928 486.119 252.05 488.186 234.924C489.958 220.455 485.086 210.194 474.677 201.483Z" fill="#FFD369"/>
<path d="M354.349 278.183C347.557 277.297 341.726 279.142 339.585 280.028C353.242 288.739 347.705 295.678 347.705 295.678C347.705 295.678 333.236 282.612 308.506 280.471C295.957 279.364 287.467 286.598 299.574 296.933C304.815 301.362 311.607 301.215 316.922 300.034C310.647 295.826 305.701 292.651 305.701 292.651C305.701 292.651 307.104 288.813 318.251 291.913C326.223 294.202 336.263 302.839 349.92 305.349C355.825 304.684 364.536 302.248 371.771 294.866C379.153 287.115 368.08 280.028 354.349 278.183Z" fill="#FFD369"/>
<path d="M441.605 275.747L443.894 268.881C445.296 263.049 442.565 249.245 416.949 255.593C391.333 262.016 379.67 281.505 379.67 281.505C379.67 281.505 383.877 282.612 393.622 277.518C393.622 277.518 405.95 266.297 418.056 264.23C428.613 262.459 432.673 266.888 432.673 266.888C432.673 266.888 437.988 269.324 441.605 275.747Z" fill="#FFD369"/>
<path d="M379.227 271.539C379.596 268.66 380.26 266.593 380.26 266.593C380.26 266.593 375.314 269.619 367.12 264.526C367.12 264.526 362.543 268.512 358.778 272.498C362.986 273.606 372.288 275.23 379.227 271.539Z" fill="#FFD369"/>
<path d="M379.67 281.505C378.636 278.183 378.784 274.492 379.227 271.539C372.288 275.23 362.986 273.532 358.778 272.498L354.423 278.183C368.154 280.028 379.227 287.115 371.845 294.792C364.61 302.174 355.899 304.611 349.994 305.275C355.309 306.308 361.141 306.382 367.637 304.832C387.052 300.181 398.346 285.417 403.588 276.632C397.83 277.444 393.769 277.371 393.769 277.371C383.877 282.612 379.67 281.505 379.67 281.505Z" fill="#FFD369"/>
<path d="M354.349 278.183C354.349 278.183 353.168 271.76 353.832 264.526C349.108 271.686 343.35 276.928 339.511 279.954L339.585 280.028C341.726 279.142 347.557 277.297 354.349 278.183Z" fill="#FFD369"/>
<path d="M454.007 311.033C451.497 308.006 451.423 304.611 451.423 304.611L454.007 301.584L457.255 304.02C456.738 309.04 454.007 311.033 454.007 311.033ZM438.505 315.979C435.035 311.919 434.961 307.268 434.961 307.268L438.505 303.06L442.934 306.382C442.196 313.174 438.505 315.979 438.505 315.979ZM431.639 294.866C430.753 303.06 426.989 311.181 422.19 318.563C425.143 321.146 430.015 324.985 435.035 327.2C435.035 327.2 451.202 323.509 462.053 312.436C461.537 302.617 464.563 291.987 468.402 283.867L469.657 281.209C454.376 298.705 434.592 295.457 431.639 294.866Z" fill="#FFD369"/>
<path d="M451.423 304.611C451.423 304.611 451.497 308.08 454.007 311.033C454.007 311.033 456.738 309.04 457.255 303.946L454.007 301.51L451.423 304.611Z" fill="#FFD369"/>
<path d="M370.794 187.966C390.504 172.242 412.872 161.391 429.408 161.981C442.031 162.424 457.903 173.202 466.097 177.262C475.398 181.765 488.465 185.382 494.961 180.879C494.961 180.879 491.787 191.731 476.063 188.778C472.445 188.114 468.607 186.49 464.62 184.57C442.77 175.49 417.449 176.598 396.336 202.582C390.061 210.26 385.485 219.93 381.572 226.5C379.357 227.312 376.626 227.312 375.445 222.736C373.304 214.911 379.357 201.327 379.357 201.327C366.439 209.669 359.943 235.949 359.943 235.949C356.03 225.762 362.305 208.267 362.305 208.267C358.097 211.515 355.218 215.796 353.225 220.226L353.299 218.159C353.446 211.219 355.956 199.851 370.794 187.966ZM425.717 244.66L420.402 245.768C420.919 243.036 420.328 240.452 418.999 238.238L418.925 238.976L414.422 241.855L411.543 237.278L414.422 234.399L412.872 233.882L406.45 234.621C409.476 230.93 412.355 228.198 414.718 226.279C422.543 228.641 427.341 236.614 425.717 244.66ZM450.668 214.837C438.709 212.917 431.992 220.742 429.777 223.99C427.415 219.414 423.355 217.125 422.469 216.608C425.865 212.548 435.166 203.321 448.97 205.24C463.587 207.233 475.103 218.971 475.694 230.044C475.694 230.044 468.164 217.642 450.668 214.837ZM445.796 248.647C440.629 244.513 433.911 243.774 433.911 243.774L433.616 238.385C433.616 238.385 445.353 238.312 451.48 246.063C457.46 253.814 451.628 262.008 451.628 262.008C451.628 262.008 452.292 253.888 445.796 248.647ZM396.41 249.975C397.739 247.318 399.215 244.882 400.618 242.593C400.175 246.21 401.725 249.606 404.457 251.747L400.175 254.183L396.41 249.975ZM379.431 319.736C379.431 319.736 381.646 315.528 383.787 310.73C393.383 305.193 400.839 297.147 406.154 289.691C404.53 294.563 397.148 313.978 379.431 319.736ZM488.243 234.768C486.102 251.969 477.244 265.847 469.862 280.906L468.607 283.564C464.768 291.684 461.815 302.314 462.258 312.133C451.333 323.28 435.24 326.897 435.24 326.897C430.146 324.756 425.348 320.843 422.395 318.26C427.193 310.951 430.958 302.757 431.844 294.563L431.918 288.436C431.918 288.436 419.147 317.448 388.511 336.936C381.277 341.513 356.99 325.863 360.607 319.662L362.01 317.3C364.593 317.152 367.251 316.857 369.908 316.193L366.66 320.696C364.077 323.575 381.277 332.064 384.968 330.514C387.256 329.48 399.363 320.474 410.805 303.053C419.147 290.282 421.731 277.142 422.543 271.014C428.67 268.504 432.951 266.659 432.951 266.659C432.951 266.659 428.891 262.23 418.335 264.001C406.228 266.068 393.9 277.289 393.9 277.289C393.9 277.289 397.96 277.363 403.718 276.551C398.477 285.336 387.183 300.026 367.768 304.751C361.271 306.301 355.44 306.153 350.124 305.193C336.468 302.684 326.428 294.047 318.455 291.758C307.308 288.731 305.906 292.496 305.906 292.496C305.906 292.496 310.852 295.671 317.127 299.878C311.812 301.059 305.02 301.207 299.779 296.778C287.746 286.443 296.162 279.208 308.711 280.316C333.367 282.457 347.91 295.523 347.91 295.523C347.91 295.523 353.446 288.51 339.79 279.873L339.716 279.799C343.628 276.772 349.386 271.605 354.037 264.37C353.373 271.531 354.554 278.027 354.554 278.027L358.909 272.343C362.674 268.357 367.251 264.37 367.251 264.37C375.445 269.464 380.391 266.437 380.391 266.437C380.391 266.437 379.727 268.504 379.357 271.383C378.915 274.336 378.767 278.027 379.8 281.349C379.8 281.349 391.464 261.86 417.08 255.438C442.696 249.016 445.427 262.894 444.024 268.726L441.736 275.591C440.555 278.396 439.448 280.39 439.448 280.39C439.448 280.39 450.004 292.939 460.044 279.799C471.486 264.813 471.781 249.68 455.541 233.882C446.387 224.876 454.728 227.165 462.184 233.513C468.385 238.755 473.184 247.835 473.627 250.492C474.07 253.15 479.089 252.485 480.787 247.761C482.337 242.962 493.632 216.387 466.909 200.294C435.83 181.544 409.329 201.327 390.8 247.023C386.961 256.472 377.364 256.176 377.364 256.176C372.714 256.324 369.982 253.74 369.982 253.74L369.835 253.666C383.491 254.257 386.223 244.365 386.223 244.365C389.766 235.949 399.806 211.367 415.825 198.891C431.77 186.416 452.662 183.094 474.734 201.401C485.143 209.965 490.015 220.226 488.243 234.768Z" fill="#FFD369"/>
<path d="M406.097 289.92C400.708 297.376 393.326 305.422 383.73 310.959C381.589 315.757 379.374 319.965 379.374 319.965C397.091 314.207 404.473 294.792 406.097 289.92Z" fill="#FFD369"/>
<path d="M414.587 226.434C412.298 228.354 409.345 231.085 406.319 234.776L412.741 234.038L414.291 234.555H415.989L418.942 238.393C420.271 240.534 420.861 243.192 420.345 245.923L425.66 244.816C427.284 236.843 422.486 228.87 414.587 226.434Z" fill="#FFD369"/>
<path d="M404.399 251.976C401.668 249.836 400.118 246.44 400.561 242.823C399.158 245.037 397.682 247.473 396.353 250.205L400.192 254.412L404.399 251.976Z" fill="#FFD369"/>
<path d="M415.989 234.702H414.292L411.413 237.507L414.292 242.084L418.795 239.205L418.868 238.467L415.989 234.702Z" fill="#FFD369"/>
<path d="M475.637 230.273C475.046 219.2 463.456 207.536 448.913 205.469C435.109 203.55 425.808 212.778 422.412 216.838C423.298 217.281 427.284 219.643 429.72 224.22C431.935 220.972 438.726 213.073 450.611 215.066C468.107 217.871 475.637 230.273 475.637 230.273Z" fill="#FFD369"/>
<path d="M451.423 246.366C445.296 238.615 433.559 238.689 433.559 238.689L433.854 244.077C433.854 244.077 440.572 244.816 445.739 248.95C452.235 254.191 451.571 262.385 451.571 262.385C451.571 262.385 457.403 254.117 451.423 246.366Z" fill="#FFD369"/>
<path d="M353.168 220.381C355.087 216.026 357.966 211.744 362.248 208.422C362.248 208.422 356.047 225.991 359.886 236.105C359.886 236.105 366.382 209.825 379.3 201.483C379.3 201.483 373.247 215.066 375.388 222.891C376.643 227.468 379.3 227.468 381.515 226.656C385.428 220.086 390.078 210.415 396.279 202.738C417.392 176.753 442.712 175.719 464.563 184.726C468.55 186.645 472.388 188.195 476.006 188.933C491.729 191.886 494.904 181.034 494.904 181.034C488.334 185.538 475.341 181.92 466.04 177.417C457.846 173.357 441.974 162.579 429.351 162.136C412.815 161.546 390.447 172.397 370.737 188.121C355.899 200.006 353.389 211.375 353.242 218.314L353.168 220.381Z" fill="#FFD369"/>
<path d="M435.035 307.194C435.035 307.194 435.109 311.845 438.579 315.905C438.579 315.905 442.27 313.174 443.008 306.308L438.579 302.987L435.035 307.194Z" fill="#FFD369"/>
</svg>
