<svg width="1240" height="535" viewBox="0 0 1240 535" fill="none" xmlns="http://www.w3.org/2000/svg">
<rect width="1240" height="535" rx="40" fill="#303841"/>
<path d="M454.328 364V166.432H552.824C566.84 166.432 578.456 169.024 587.672 174.208C596.888 179.392 603.8 186.592 608.408 195.808C613.208 204.832 615.608 215.584 615.608 228.064C615.608 240.544 613.112 251.584 608.12 261.184C603.128 270.592 595.832 277.888 586.232 283.072C576.824 288.256 565.304 290.848 551.672 290.848H486.584V364H454.328ZM486.584 263.2H550.232C560.408 263.2 568.376 260.128 574.136 253.984C580.088 247.84 583.064 239.296 583.064 228.352C583.064 221.056 581.816 214.912 579.32 209.92C576.824 204.736 573.176 200.8 568.376 198.112C563.576 195.424 557.528 194.08 550.232 194.08H486.584V263.2ZM642.39 186.304V155.776H672.342V186.304H642.39ZM642.39 364V212.512H672.342V364H642.39ZM695.175 364L749.319 286.24L698.343 212.512H734.631L768.039 263.2H769.767L803.463 212.512H837.735L786.471 285.376L840.615 364H804.615L767.751 308.416H766.311L729.447 364H695.175ZM921.214 367.456C905.47 367.456 892.126 364.672 881.182 359.104C870.43 353.344 862.27 344.608 856.702 332.896C851.326 321.184 848.638 306.304 848.638 288.256C848.638 270.016 851.326 255.136 856.702 243.616C862.27 231.904 870.43 223.264 881.182 217.696C892.126 211.936 905.47 209.056 921.214 209.056C937.342 209.056 950.782 211.936 961.534 217.696C972.286 223.264 980.35 231.904 985.726 243.616C991.294 255.136 994.078 270.016 994.078 288.256C994.078 306.304 991.294 321.184 985.726 332.896C980.35 344.608 972.286 353.344 961.534 359.104C950.782 364.672 937.342 367.456 921.214 367.456ZM921.214 342.688C930.814 342.688 938.686 340.864 944.83 337.216C950.974 333.376 955.486 327.616 958.366 319.936C961.438 312.256 962.974 302.56 962.974 290.848V285.664C962.974 273.952 961.438 264.256 958.366 256.576C955.486 248.896 950.974 243.232 944.83 239.584C938.686 235.744 930.814 233.824 921.214 233.824C911.806 233.824 904.03 235.744 897.886 239.584C891.742 243.232 887.134 248.896 884.062 256.576C881.182 264.256 879.742 273.952 879.742 285.664V290.848C879.742 302.56 881.182 312.256 884.062 319.936C887.134 327.616 891.742 333.376 897.886 337.216C904.03 340.864 911.806 342.688 921.214 342.688ZM1072.13 367.456C1057.54 367.456 1045.73 363.616 1036.7 355.936C1027.68 348.064 1023.17 334.72 1023.17 315.904V212.512H1053.12V311.296C1053.12 317.056 1053.79 321.856 1055.14 325.696C1056.67 329.536 1058.78 332.608 1061.47 334.912C1064.16 337.216 1067.33 338.848 1070.98 339.808C1074.62 340.768 1078.66 341.248 1083.07 341.248C1089.98 341.248 1096.22 339.616 1101.79 336.352C1107.55 332.896 1112.16 328.192 1115.62 322.24C1119.07 316.096 1120.8 309.088 1120.8 301.216V212.512H1150.75V364H1126.27L1123.68 342.4H1121.66C1118.02 347.968 1113.7 352.576 1108.7 356.224C1103.71 359.872 1098.14 362.656 1092 364.576C1086.05 366.496 1079.42 367.456 1072.13 367.456Z" fill="#FFD369"/>
<circle cx="215.5" cy="267.5" r="146.5" fill="#222831" stroke="#FFD369" stroke-width="20"/>
<path d="M282.677 218.483C260.604 200.101 239.713 203.497 223.768 215.973C207.749 228.449 197.709 253.031 194.166 261.447C194.166 261.447 191.434 271.338 177.778 270.748L177.925 270.822C177.925 270.822 180.657 273.405 185.307 273.258C185.307 273.258 194.904 273.553 198.743 264.104C217.345 218.409 243.773 198.699 274.852 217.376C301.575 233.542 290.28 260.044 288.73 264.842C287.106 269.567 282.012 270.157 281.57 267.574C281.127 264.916 276.254 255.836 270.127 250.595C262.598 244.246 254.33 241.958 263.483 250.964C279.65 266.762 279.429 281.895 267.987 296.88C257.873 310.021 247.391 297.471 247.391 297.471C247.391 297.471 248.498 295.478 249.679 292.673C246.062 286.25 240.82 283.888 240.82 283.888C240.82 283.888 236.613 285.734 230.412 288.243C229.6 294.371 227.016 307.437 218.674 320.282C207.232 337.777 195.125 346.709 192.837 347.743C189.146 349.293 171.946 340.878 174.529 337.925L177.778 333.422C175.12 334.086 172.462 334.381 169.879 334.529L168.476 336.891C164.933 343.092 189.146 358.742 196.38 354.165C227.016 334.677 239.787 305.665 239.787 305.665L239.713 311.792C242.592 312.383 262.45 315.631 277.805 298.062C285.187 282.928 294.119 269.05 296.186 251.924C297.958 237.455 293.086 227.194 282.677 218.483Z" fill="#FFD369"/>
<path d="M162.349 295.183C155.557 294.297 149.726 296.142 147.585 297.028C161.242 305.739 155.705 312.678 155.705 312.678C155.705 312.678 141.236 299.612 116.506 297.471C103.957 296.364 95.4674 303.598 107.574 313.933C112.815 318.362 119.607 318.215 124.922 317.034C118.647 312.826 113.701 309.651 113.701 309.651C113.701 309.651 115.104 305.813 126.251 308.913C134.223 311.202 144.263 319.839 157.92 322.349C163.825 321.684 172.536 319.248 179.771 311.866C187.153 304.115 176.08 297.028 162.349 295.183Z" fill="#FFD369"/>
<path d="M249.605 292.747L251.894 285.881C253.296 280.049 250.565 266.245 224.949 272.593C199.333 279.016 187.67 298.505 187.67 298.505C187.67 298.505 191.877 299.612 201.622 294.518C201.622 294.518 213.95 283.297 226.056 281.23C236.613 279.459 240.673 283.888 240.673 283.888C240.673 283.888 245.988 286.324 249.605 292.747Z" fill="#FFD369"/>
<path d="M187.227 288.539C187.596 285.66 188.26 283.593 188.26 283.593C188.26 283.593 183.314 286.619 175.12 281.526C175.12 281.526 170.543 285.512 166.778 289.498C170.986 290.606 180.288 292.23 187.227 288.539Z" fill="#FFD369"/>
<path d="M187.67 298.505C186.636 295.183 186.784 291.492 187.227 288.539C180.288 292.23 170.986 290.532 166.778 289.498L162.423 295.183C176.154 297.028 187.227 304.115 179.845 311.792C172.61 319.174 163.899 321.611 157.994 322.275C163.309 323.308 169.141 323.382 175.637 321.832C195.052 317.181 206.346 302.417 211.588 293.632C205.83 294.444 201.769 294.371 201.769 294.371C191.877 299.612 187.67 298.505 187.67 298.505Z" fill="#FFD369"/>
<path d="M162.349 295.183C162.349 295.183 161.168 288.76 161.832 281.526C157.108 288.686 151.35 293.928 147.511 296.954L147.585 297.028C149.726 296.142 155.557 294.297 162.349 295.183Z" fill="#FFD369"/>
<path d="M262.007 328.033C259.497 325.006 259.423 321.611 259.423 321.611L262.007 318.584L265.255 321.02C264.738 326.04 262.007 328.033 262.007 328.033ZM246.505 332.979C243.035 328.919 242.961 324.268 242.961 324.268L246.505 320.06L250.934 323.382C250.196 330.174 246.505 332.979 246.505 332.979ZM239.639 311.866C238.753 320.06 234.989 328.181 230.19 335.563C233.143 338.146 238.015 341.985 243.035 344.2C243.035 344.2 259.202 340.509 270.053 329.436C269.537 319.617 272.563 308.987 276.402 300.867L277.657 298.209C262.376 315.705 242.592 312.457 239.639 311.866Z" fill="#FFD369"/>
<path d="M259.423 321.611C259.423 321.611 259.497 325.08 262.007 328.033C262.007 328.033 264.738 326.04 265.255 320.946L262.007 318.51L259.423 321.611Z" fill="#FFD369"/>
<path d="M178.794 204.966C198.504 189.242 220.872 178.391 237.408 178.981C250.031 179.424 265.903 190.202 274.097 194.262C283.398 198.765 296.465 202.382 302.961 197.879C302.961 197.879 299.787 208.731 284.063 205.778C280.445 205.114 276.607 203.49 272.62 201.57C250.77 192.49 225.449 193.598 204.336 219.582C198.061 227.26 193.485 236.93 189.572 243.5C187.357 244.312 184.626 244.312 183.445 239.736C181.304 231.911 187.357 218.327 187.357 218.327C174.439 226.669 167.943 252.949 167.943 252.949C164.03 242.762 170.305 225.267 170.305 225.267C166.097 228.515 163.218 232.796 161.225 237.226L161.299 235.159C161.446 228.219 163.956 216.851 178.794 204.966ZM233.717 261.66L228.402 262.768C228.919 260.036 228.328 257.452 226.999 255.238L226.925 255.976L222.422 258.855L219.543 254.278L222.422 251.399L220.872 250.882L214.45 251.621C217.476 247.93 220.355 245.198 222.718 243.279C230.543 245.641 235.341 253.614 233.717 261.66ZM258.668 231.837C246.709 229.917 239.992 237.742 237.777 240.99C235.415 236.414 231.355 234.125 230.469 233.608C233.865 229.548 243.166 220.321 256.97 222.24C271.587 224.233 283.103 235.971 283.694 247.044C283.694 247.044 276.164 234.642 258.668 231.837ZM253.796 265.647C248.629 261.513 241.911 260.774 241.911 260.774L241.616 255.385C241.616 255.385 253.353 255.312 259.48 263.063C265.46 270.814 259.628 279.008 259.628 279.008C259.628 279.008 260.292 270.888 253.796 265.647ZM204.41 266.975C205.739 264.318 207.215 261.882 208.618 259.593C208.175 263.21 209.725 266.606 212.457 268.747L208.175 271.183L204.41 266.975ZM187.431 336.736C187.431 336.736 189.646 332.528 191.787 327.73C201.383 322.193 208.839 314.147 214.154 306.691C212.53 311.563 205.148 330.978 187.431 336.736ZM296.243 251.768C294.102 268.969 285.244 282.847 277.862 297.906L276.607 300.564C272.768 308.684 269.815 319.314 270.258 329.133C259.333 340.28 243.24 343.897 243.24 343.897C238.146 341.756 233.348 337.843 230.395 335.26C235.193 327.951 238.958 319.757 239.844 311.563L239.918 305.436C239.918 305.436 227.147 334.448 196.511 353.936C189.277 358.513 164.99 342.863 168.607 336.662L170.01 334.3C172.593 334.152 175.251 333.857 177.908 333.193L174.66 337.696C172.077 340.575 189.277 349.064 192.968 347.514C195.256 346.48 207.363 337.474 218.805 320.053C227.147 307.282 229.731 294.142 230.543 288.014C236.67 285.504 240.951 283.659 240.951 283.659C240.951 283.659 236.891 279.23 226.335 281.001C214.228 283.068 201.9 294.289 201.9 294.289C201.9 294.289 205.96 294.363 211.718 293.551C206.477 302.336 195.183 317.026 175.768 321.751C169.271 323.301 163.44 323.153 158.124 322.193C144.468 319.684 134.428 311.047 126.455 308.758C115.308 305.731 113.906 309.496 113.906 309.496C113.906 309.496 118.852 312.671 125.127 316.878C119.812 318.059 113.02 318.207 107.779 313.778C95.7459 303.443 104.162 296.208 116.711 297.316C141.367 299.457 155.91 312.523 155.91 312.523C155.91 312.523 161.446 305.51 147.79 296.873L147.716 296.799C151.628 293.772 157.386 288.605 162.037 281.37C161.373 288.531 162.554 295.027 162.554 295.027L166.909 289.343C170.674 285.357 175.251 281.37 175.251 281.37C183.445 286.464 188.391 283.437 188.391 283.437C188.391 283.437 187.727 285.504 187.357 288.383C186.915 291.336 186.767 295.027 187.8 298.349C187.8 298.349 199.464 278.86 225.08 272.438C250.696 266.016 253.427 279.894 252.024 285.726L249.736 292.591C248.555 295.396 247.448 297.39 247.448 297.39C247.448 297.39 258.004 309.939 268.044 296.799C279.486 281.813 279.781 266.68 263.541 250.882C254.387 241.876 262.728 244.165 270.184 250.513C276.385 255.755 281.184 264.835 281.627 267.492C282.07 270.15 287.089 269.485 288.787 264.761C290.337 259.962 301.632 233.387 274.909 217.294C243.83 198.544 217.329 218.327 198.8 264.023C194.961 273.472 185.364 273.176 185.364 273.176C180.714 273.324 177.982 270.74 177.982 270.74L177.835 270.666C191.491 271.257 194.223 261.365 194.223 261.365C197.766 252.949 207.806 228.367 223.825 215.891C239.77 203.416 260.662 200.094 282.734 218.401C293.143 226.965 298.015 237.226 296.243 251.768Z" fill="#FFD369"/>
<path d="M214.097 306.92C208.708 314.376 201.326 322.422 191.73 327.959C189.589 332.757 187.374 336.965 187.374 336.965C205.091 331.207 212.473 311.792 214.097 306.92Z" fill="#FFD369"/>
<path d="M222.587 243.434C220.298 245.354 217.345 248.085 214.319 251.776L220.741 251.038L222.291 251.555H223.989L226.942 255.393C228.271 257.534 228.861 260.192 228.345 262.923L233.66 261.816C235.284 253.843 230.486 245.87 222.587 243.434Z" fill="#FFD369"/>
<path d="M212.399 268.976C209.668 266.836 208.118 263.44 208.561 259.823C207.158 262.037 205.682 264.473 204.353 267.205L208.192 271.412L212.399 268.976Z" fill="#FFD369"/>
<path d="M223.989 251.702H222.292L219.413 254.507L222.292 259.084L226.795 256.205L226.868 255.467L223.989 251.702Z" fill="#FFD369"/>
<path d="M283.637 247.273C283.046 236.2 271.456 224.536 256.913 222.469C243.109 220.55 233.808 229.778 230.412 233.838C231.298 234.281 235.284 236.643 237.72 241.22C239.935 237.972 246.726 230.073 258.611 232.066C276.107 234.871 283.637 247.273 283.637 247.273Z" fill="#FFD369"/>
<path d="M259.423 263.366C253.296 255.615 241.559 255.689 241.559 255.689L241.854 261.077C241.854 261.077 248.572 261.816 253.739 265.95C260.235 271.191 259.571 279.385 259.571 279.385C259.571 279.385 265.403 271.117 259.423 263.366Z" fill="#FFD369"/>
<path d="M161.168 237.381C163.087 233.026 165.966 228.744 170.248 225.422C170.248 225.422 164.047 242.991 167.886 253.105C167.886 253.105 174.382 226.825 187.3 218.483C187.3 218.483 181.247 232.066 183.388 239.891C184.643 244.468 187.3 244.468 189.515 243.656C193.428 237.086 198.078 227.415 204.279 219.738C225.392 193.753 250.712 192.719 272.563 201.726C276.55 203.645 280.388 205.195 284.006 205.933C299.729 208.886 302.904 198.034 302.904 198.034C296.334 202.538 283.341 198.92 274.04 194.417C265.846 190.357 249.974 179.579 237.351 179.136C220.815 178.546 198.447 189.397 178.737 205.121C163.899 217.006 161.389 228.375 161.242 235.314L161.168 237.381Z" fill="#FFD369"/>
<path d="M243.035 324.194C243.035 324.194 243.109 328.845 246.579 332.905C246.579 332.905 250.27 330.174 251.008 323.308L246.579 319.987L243.035 324.194Z" fill="#FFD369"/>
</svg>
